<?xml version="1.0" standalone="no"?>
<!DOCTYPE svg PUBLIC "-//W3C//DTD SVG 20010904//EN"
 "http://www.w3.org/TR/2001/REC-SVG-20010904/DTD/svg10.dtd">
<svg version="1.0" xmlns="http://www.w3.org/2000/svg"
 width="816.000000pt" height="816.000000pt" viewBox="0 0 816.000000 816.000000"
 preserveAspectRatio="xMidYMid meet">
<metadata>
Created by potrace 1.14, written by Peter Selinger 2001-2017
</metadata>
<g transform="translate(0.000000,816.000000) scale(0.100000,-0.100000)"
fill="#000000" stroke="none">
<path d="M4007 8114 c-1 -1 -63 -5 -137 -8 -74 -4 -151 -8 -170 -11 -19 -2
-57 -6 -85 -9 -27 -3 -61 -8 -75 -10 -14 -2 -43 -7 -65 -10 -22 -3 -58 -8 -80
-12 -22 -4 -50 -8 -62 -8 -13 -1 -23 -4 -23 -8 0 -5 -3 -7 -7 -6 -5 1 -26 -1
-48 -5 -22 -3 -43 -7 -47 -7 -4 0 -26 -7 -48 -15 -22 -8 -40 -12 -40 -10 0 3
-115 -28 -197 -53 -17 -6 -34 -8 -37 -4 -3 3 -6 0 -6 -7 0 -6 -6 -11 -12 -10
-16 3 -69 -11 -83 -21 -5 -4 -35 -15 -65 -24 -134 -43 -443 -185 -610 -280
-25 -14 -61 -34 -80 -45 -47 -26 -343 -224 -360 -241 -3 -3 -39 -32 -80 -64
-41 -32 -79 -64 -85 -70 -5 -6 -27 -24 -48 -39 -43 -33 -357 -341 -357 -351 0
-4 -10 -17 -23 -29 -90 -88 -397 -503 -397 -538 0 -5 -4 -9 -10 -9 -5 0 -10
-4 -10 -9 0 -5 -23 -47 -50 -94 -28 -47 -50 -90 -50 -95 0 -6 -5 -12 -11 -14
-5 -2 -11 -10 -13 -18 -1 -8 -8 -26 -16 -40 -24 -44 -67 -134 -124 -263 -18
-39 -96 -244 -101 -262 -1 -5 -5 -17 -8 -25 -10 -24 -76 -247 -82 -277 -8 -38
-13 -57 -15 -60 -2 -2 -3 -6 -4 -10 -6 -28 -19 -90 -21 -103 -2 -8 -8 -40 -14
-70 -7 -30 -14 -73 -17 -95 -3 -22 -8 -51 -10 -65 -3 -14 -7 -43 -9 -65 -3
-22 -7 -50 -9 -62 -13 -64 -21 -236 -21 -473 0 -263 8 -393 30 -542 4 -24 9
-56 11 -73 2 -16 5 -40 8 -51 2 -12 7 -37 10 -55 3 -19 8 -43 10 -54 2 -11 12
-56 21 -100 9 -44 19 -87 22 -95 3 -8 7 -22 9 -31 10 -48 61 -225 74 -254 4
-11 15 -40 23 -65 24 -70 74 -205 92 -247 38 -85 188 -389 200 -403 7 -8 25
-40 41 -70 16 -30 31 -57 35 -60 3 -3 36 -52 73 -110 38 -58 72 -106 77 -108
5 -2 9 -8 9 -13 0 -6 5 -15 10 -22 6 -7 47 -59 92 -117 45 -58 96 -121 114
-140 119 -133 157 -173 224 -240 80 -78 197 -185 246 -222 16 -13 36 -29 44
-37 24 -23 227 -172 310 -226 41 -28 77 -52 80 -55 5 -5 17 -12 89 -52 20 -11
41 -24 46 -28 16 -13 335 -173 385 -194 25 -10 69 -29 97 -42 29 -13 65 -26
80 -30 16 -4 33 -11 39 -15 6 -5 19 -10 30 -12 10 -1 24 -5 29 -8 6 -3 57 -20
115 -38 58 -18 112 -35 120 -38 8 -3 20 -7 26 -8 18 -4 187 -45 214 -52 14 -3
34 -8 45 -10 11 -1 40 -7 65 -13 43 -9 90 -17 155 -25 17 -3 46 -7 65 -10 52
-8 140 -17 185 -19 22 -1 45 -4 50 -8 12 -7 594 -2 650 6 22 3 63 8 90 11 28
3 64 7 80 10 36 6 96 14 150 21 22 3 67 12 100 20 33 8 67 15 75 16 8 0 45 9
83 19 37 10 67 15 67 12 0 -3 7 0 15 7 8 7 15 10 15 7 0 -3 12 -2 28 3 15 5
81 25 147 46 66 20 126 41 133 46 6 6 12 8 12 5 0 -3 39 11 88 30 48 19 92 36
97 37 44 11 437 206 465 231 8 8 17 13 20 12 3 0 31 16 63 36 31 20 61 37 66
37 5 0 11 3 13 8 2 4 37 29 78 56 80 52 207 147 280 207 14 12 43 35 64 52 96
79 343 319 418 409 20 24 48 57 63 73 88 100 234 305 371 520 54 86 249 474
260 520 1 6 16 44 34 85 17 41 32 83 33 92 1 10 5 18 9 18 4 0 8 6 8 13 0 7
12 48 26 92 15 44 27 85 29 90 1 6 5 17 8 25 6 17 57 214 62 239 3 18 18 93
20 101 0 3 5 28 10 55 4 28 9 57 11 65 2 14 6 39 20 140 3 19 7 46 10 60 26
156 26 740 -1 920 -3 19 -7 51 -9 70 -3 19 -8 55 -11 80 -4 25 -9 54 -10 65
-2 11 -4 20 -5 20 -1 0 -3 14 -5 30 -2 17 -7 46 -11 65 -4 19 -9 42 -10 50 -1
8 -9 44 -18 80 -9 36 -18 72 -20 80 -11 45 -30 112 -48 168 -11 34 -21 68 -22
75 -3 13 -13 40 -26 72 -5 11 -14 38 -21 60 -6 22 -15 44 -20 49 -5 6 -9 17
-9 26 0 9 -9 35 -20 58 -18 37 -40 87 -45 102 -27 82 -225 455 -250 472 -5 4
-7 8 -3 8 6 0 -65 114 -90 145 -11 14 -95 134 -107 154 -5 9 -12 18 -15 21 -3
3 -21 25 -40 50 -35 46 -108 133 -170 204 -124 142 -374 376 -535 502 -73 57
-284 203 -335 232 -19 11 -65 38 -101 60 -74 45 -318 172 -331 172 -5 0 -20 8
-35 17 -14 10 -31 18 -38 19 -6 1 -36 13 -66 26 -56 26 -305 116 -324 118 -3
0 -29 9 -57 20 -29 10 -64 21 -78 23 -14 3 -49 12 -78 20 -28 9 -52 13 -52 10
0 -3 -7 0 -15 7 -8 7 -15 10 -15 6 0 -3 -11 -1 -26 4 -14 6 -42 12 -62 15 -43
6 -77 12 -100 19 -9 3 -37 8 -62 12 -72 10 -85 12 -85 14 0 1 -16 3 -35 4 -19
2 -53 6 -75 10 -89 14 -547 39 -558 30z"/>
</g>
</svg>
