<svg width="151" height="51" viewBox="0 0 151 51" fill="none" xmlns="http://www.w3.org/2000/svg">
<path d="M64.3984 22.1957L61.2783 32.3031H57.9648L62.667 19.5062H64.7676L64.3984 22.1957ZM66.9824 32.3031L63.8535 22.1957L63.4492 19.5062H65.5762L70.3047 32.3031H66.9824ZM66.8594 27.5306V29.9125H60.2939V27.5306H66.8594ZM74.5006 28.3129L77.1197 22.7933H80.0816V32.3031H77.1197V26.766L74.5006 32.3031H71.5299V22.7933H74.5006V28.3129ZM77.1021 18.7855H79.1324C79.1324 19.3129 78.9977 19.7816 78.7281 20.1918C78.4645 20.5961 78.0895 20.9125 77.6031 21.141C77.1168 21.3695 76.5426 21.4838 75.8805 21.4838C74.8785 21.4838 74.0846 21.2347 73.4986 20.7367C72.9127 20.2328 72.6197 19.5824 72.6197 18.7855H74.6412C74.6412 19.0726 74.735 19.3304 74.9225 19.559C75.11 19.7875 75.4293 19.9017 75.8805 19.9017C76.3316 19.9017 76.648 19.7875 76.8297 19.559C77.0113 19.3304 77.1021 19.0726 77.1021 18.7855ZM86.6066 30.1937C86.882 30.1937 87.1164 30.1439 87.3098 30.0443C87.509 29.9388 87.6584 29.7924 87.758 29.6049C87.8635 29.4115 87.9133 29.1801 87.9074 28.9105H90.6936C90.6994 29.6254 90.5236 30.2523 90.1662 30.7914C89.8146 31.3246 89.3342 31.7406 88.7248 32.0394C88.1213 32.3324 87.4387 32.4789 86.677 32.4789C85.9328 32.4789 85.2824 32.3588 84.7258 32.1185C84.1691 31.8724 83.7033 31.5326 83.3283 31.099C82.9592 30.6595 82.6809 30.1469 82.4934 29.5609C82.3117 28.975 82.2209 28.3392 82.2209 27.6537V27.4515C82.2209 26.766 82.3117 26.1302 82.4934 25.5443C82.6809 24.9525 82.9592 24.4398 83.3283 24.0062C83.7033 23.5668 84.1662 23.2269 84.717 22.9867C85.2736 22.7406 85.9211 22.6176 86.6594 22.6176C87.4504 22.6176 88.1477 22.767 88.7512 23.0658C89.3605 23.3646 89.8381 23.7982 90.1838 24.3666C90.5295 24.9349 90.6994 25.6234 90.6936 26.432H87.9074C87.9133 26.1449 87.8693 25.8871 87.7756 25.6586C87.6818 25.4301 87.5354 25.2484 87.3361 25.1136C87.1428 24.973 86.8937 24.9027 86.5891 24.9027C86.2844 24.9027 86.0383 24.9701 85.8508 25.1049C85.6633 25.2396 85.5197 25.4271 85.4201 25.6674C85.3264 25.9017 85.2619 26.1713 85.2268 26.476C85.1975 26.7806 85.1828 27.1058 85.1828 27.4515V27.6537C85.1828 28.0052 85.1975 28.3363 85.2268 28.6469C85.2619 28.9515 85.3293 29.2211 85.4289 29.4554C85.5285 29.684 85.6721 29.8656 85.8596 30.0004C86.0471 30.1293 86.2961 30.1937 86.6066 30.1937ZM103.972 18.5922H106.354C106.354 19.014 106.31 19.3949 106.222 19.7347C106.134 20.0687 105.97 20.3705 105.73 20.64C105.49 20.9037 105.138 21.1351 104.675 21.3344C104.218 21.5277 103.615 21.6918 102.865 21.8265C102.384 21.9203 101.98 22.0814 101.652 22.3099C101.324 22.5385 101.06 22.849 100.861 23.2416C100.667 23.6283 100.53 24.1088 100.448 24.683C100.371 25.2572 100.342 25.9369 100.36 26.722V26.9594L98.0922 27.3636V27.1263C98.098 25.9486 98.2006 24.9261 98.3998 24.059C98.599 23.1859 98.8832 22.4506 99.2523 21.8529C99.6273 21.2552 100.079 20.7777 100.606 20.4203C101.133 20.0629 101.725 19.8109 102.381 19.6644C102.797 19.5707 103.12 19.4799 103.348 19.392C103.582 19.3041 103.744 19.1986 103.831 19.0756C103.925 18.9525 103.972 18.7914 103.972 18.5922ZM103.243 23.3207C103.899 23.3207 104.479 23.432 104.983 23.6547C105.487 23.8773 105.909 24.1908 106.248 24.5951C106.588 24.9994 106.846 25.4769 107.022 26.0277C107.198 26.5726 107.286 27.1674 107.286 27.8119V27.9965C107.286 28.641 107.186 29.2386 106.987 29.7894C106.787 30.3344 106.495 30.809 106.108 31.2133C105.721 31.6176 105.241 31.931 104.666 32.1537C104.098 32.3763 103.442 32.4877 102.698 32.4877C101.954 32.4877 101.294 32.3646 100.72 32.1185C100.146 31.8666 99.6625 31.515 99.2699 31.0638C98.8832 30.6127 98.5902 30.0824 98.391 29.473C98.1918 28.8636 98.0922 28.1957 98.0922 27.4691V27.2845C98.0863 27.2025 98.1361 27.1263 98.2416 27.056C98.3529 26.9799 98.4818 26.8861 98.6283 26.7748C98.7807 26.6576 98.9154 26.4994 99.0326 26.3002C99.4486 25.5912 99.8734 25.0199 100.307 24.5863C100.741 24.1469 101.198 23.8275 101.678 23.6283C102.159 23.4232 102.68 23.3207 103.243 23.3207ZM102.68 25.6058C102.264 25.6058 101.936 25.7084 101.696 25.9135C101.461 26.1127 101.294 26.3793 101.195 26.7133C101.101 27.0472 101.054 27.4135 101.054 27.8119V27.9965C101.054 28.307 101.08 28.597 101.133 28.8666C101.186 29.1302 101.274 29.3646 101.397 29.5697C101.52 29.7689 101.687 29.9242 101.898 30.0355C102.115 30.1469 102.381 30.2025 102.698 30.2025C103.008 30.2025 103.269 30.1469 103.48 30.0355C103.691 29.9242 103.858 29.7689 103.981 29.5697C104.104 29.3646 104.192 29.1302 104.245 28.8666C104.297 28.597 104.324 28.307 104.324 27.9965V27.8119C104.324 27.5131 104.297 27.2318 104.245 26.9681C104.192 26.6986 104.104 26.4642 103.981 26.265C103.858 26.0599 103.688 25.8988 103.471 25.7816C103.26 25.6644 102.996 25.6058 102.68 25.6058ZM114.153 32.4789C113.38 32.4789 112.688 32.3588 112.079 32.1185C111.47 31.8724 110.954 31.5355 110.532 31.1078C110.116 30.6801 109.797 30.1879 109.574 29.6312C109.357 29.0746 109.249 28.4857 109.249 27.8646V27.5306C109.249 26.8334 109.346 26.1888 109.539 25.597C109.732 24.9994 110.02 24.4779 110.4 24.0326C110.781 23.5873 111.259 23.2416 111.833 22.9955C112.407 22.7435 113.075 22.6176 113.837 22.6176C114.511 22.6176 115.114 22.726 115.647 22.9427C116.181 23.1595 116.632 23.4701 117.001 23.8744C117.376 24.2787 117.66 24.7679 117.854 25.3422C118.053 25.9164 118.152 26.5609 118.152 27.2758V28.4799H110.383V26.6254H115.261V26.3969C115.267 26.0804 115.211 25.8109 115.094 25.5883C114.982 25.3656 114.818 25.1957 114.602 25.0785C114.385 24.9613 114.121 24.9027 113.811 24.9027C113.488 24.9027 113.222 24.973 113.011 25.1136C112.806 25.2543 112.645 25.4476 112.527 25.6937C112.416 25.934 112.337 26.2123 112.29 26.5287C112.243 26.8451 112.22 27.1791 112.22 27.5306V27.8646C112.22 28.2162 112.267 28.5355 112.36 28.8226C112.46 29.1097 112.601 29.3558 112.782 29.5609C112.97 29.7601 113.192 29.9154 113.45 30.0267C113.714 30.1381 114.013 30.1937 114.347 30.1937C114.751 30.1937 115.149 30.1176 115.542 29.9652C115.935 29.8129 116.271 29.5609 116.553 29.2094L117.897 30.809C117.704 31.0844 117.429 31.351 117.071 31.6088C116.72 31.8666 116.298 32.0775 115.806 32.2416C115.313 32.3998 114.763 32.4789 114.153 32.4789ZM123.174 28.3129L125.794 22.7933H128.755V32.3031H125.794V26.766L123.174 32.3031H120.204V22.7933H123.174V28.3129ZM125.776 18.7855H127.806C127.806 19.3129 127.671 19.7816 127.402 20.1918C127.138 20.5961 126.763 20.9125 126.277 21.141C125.791 21.3695 125.216 21.4838 124.554 21.4838C123.552 21.4838 122.758 21.2347 122.172 20.7367C121.587 20.2328 121.294 19.5824 121.294 18.7855H123.315C123.315 19.0726 123.409 19.3304 123.596 19.559C123.784 19.7875 124.103 19.9017 124.554 19.9017C125.005 19.9017 125.322 19.7875 125.504 19.559C125.685 19.3304 125.776 19.0726 125.776 18.7855ZM136.994 18.5922H139.376C139.376 19.014 139.332 19.3949 139.244 19.7347C139.156 20.0687 138.992 20.3705 138.752 20.64C138.512 20.9037 138.16 21.1351 137.697 21.3344C137.24 21.5277 136.637 21.6918 135.887 21.8265C135.406 21.9203 135.002 22.0814 134.674 22.3099C134.346 22.5385 134.082 22.849 133.883 23.2416C133.69 23.6283 133.552 24.1088 133.47 24.683C133.394 25.2572 133.364 25.9369 133.382 26.722V26.9594L131.114 27.3636V27.1263C131.12 25.9486 131.223 24.9261 131.422 24.059C131.621 23.1859 131.905 22.4506 132.275 21.8529C132.65 21.2552 133.101 20.7777 133.628 20.4203C134.155 20.0629 134.747 19.8109 135.404 19.6644C135.82 19.5707 136.142 19.4799 136.37 19.392C136.605 19.3041 136.766 19.1986 136.854 19.0756C136.947 18.9525 136.994 18.7914 136.994 18.5922ZM136.265 23.3207C136.921 23.3207 137.501 23.432 138.005 23.6547C138.509 23.8773 138.931 24.1908 139.271 24.5951C139.611 24.9994 139.868 25.4769 140.044 26.0277C140.22 26.5726 140.308 27.1674 140.308 27.8119V27.9965C140.308 28.641 140.208 29.2386 140.009 29.7894C139.81 30.3344 139.517 30.809 139.13 31.2133C138.743 31.6176 138.263 31.931 137.689 32.1537C137.12 32.3763 136.464 32.4877 135.72 32.4877C134.976 32.4877 134.317 32.3646 133.742 32.1185C133.168 31.8666 132.685 31.515 132.292 31.0638C131.905 30.6127 131.613 30.0824 131.413 29.473C131.214 28.8636 131.114 28.1957 131.114 27.4691V27.2845C131.109 27.2025 131.158 27.1263 131.264 27.056C131.375 26.9799 131.504 26.8861 131.651 26.7748C131.803 26.6576 131.938 26.4994 132.055 26.3002C132.471 25.5912 132.896 25.0199 133.329 24.5863C133.763 24.1469 134.22 23.8275 134.7 23.6283C135.181 23.4232 135.702 23.3207 136.265 23.3207ZM135.702 25.6058C135.286 25.6058 134.958 25.7084 134.718 25.9135C134.484 26.1127 134.317 26.3793 134.217 26.7133C134.123 27.0472 134.076 27.4135 134.076 27.8119V27.9965C134.076 28.307 134.103 28.597 134.155 28.8666C134.208 29.1302 134.296 29.3646 134.419 29.5697C134.542 29.7689 134.709 29.9242 134.92 30.0355C135.137 30.1469 135.404 30.2025 135.72 30.2025C136.03 30.2025 136.291 30.1469 136.502 30.0355C136.713 29.9242 136.88 29.7689 137.003 29.5697C137.126 29.3646 137.214 29.1302 137.267 28.8666C137.32 28.597 137.346 28.307 137.346 27.9965V27.8119C137.346 27.5131 137.32 27.2318 137.267 26.9681C137.214 26.6986 137.126 26.4642 137.003 26.265C136.88 26.0599 136.71 25.8988 136.493 25.7816C136.282 25.6644 136.019 25.6058 135.702 25.6058ZM145.33 28.3129L147.949 22.7933H150.911V32.3031H147.949V26.766L145.33 32.3031H142.359V22.7933H145.33V28.3129Z" fill="white"/>
<circle cx="25" cy="25.3031" r="24" stroke="white" stroke-width="2"/>
<path d="M14.14 18.3031H18.86V32.3031H14.14V18.3031ZM34.5322 24.9831C35.3589 25.2898 35.9989 25.7364 36.4522 26.3231C36.9055 26.9098 37.1322 27.6164 37.1322 28.4431C37.1322 29.6698 36.6255 30.6231 35.6122 31.3031C34.5989 31.9698 33.1322 32.3031 31.2122 32.3031H23.3322V18.3031H30.8122C32.6789 18.3031 34.0855 18.6364 35.0322 19.3031C35.9922 19.9698 36.4722 20.8564 36.4722 21.9631C36.4722 22.6164 36.3055 23.2031 35.9722 23.7231C35.6522 24.2431 35.1722 24.6631 34.5322 24.9831ZM27.9722 21.6031V23.6831H30.1722C31.1989 23.6831 31.7122 23.3364 31.7122 22.6431C31.7122 21.9498 31.1989 21.6031 30.1722 21.6031H27.9722ZM30.8122 29.0031C31.8522 29.0031 32.3722 28.6364 32.3722 27.9031C32.3722 27.1698 31.8522 26.8031 30.8122 26.8031H27.9722V29.0031H30.8122Z" fill="white"/>
</svg>
